<svg width="24" height="24" viewBox="0 0 24 24" fill="none" xmlns="http://www.w3.org/2000/svg">
<path d="M9.74997 13.1252C9.74997 13.3477 9.68399 13.5652 9.56037 13.7502C9.43676 13.9352 9.26105 14.0794 9.05549 14.1646C8.84992 14.2497 8.62372 14.272 8.40549 14.2286C8.18726 14.1852 7.98681 14.0781 7.82947 13.9207C7.67214 13.7634 7.56499 13.5629 7.52159 13.3447C7.47818 13.1265 7.50046 12.9003 7.5856 12.6947C7.67075 12.4891 7.81495 12.3134 7.99995 12.1898C8.18496 12.0662 8.40246 12.0002 8.62497 12.0002C8.92334 12.0002 9.20949 12.1188 9.42046 12.3297C9.63144 12.5407 9.74997 12.8269 9.74997 13.1252ZM15.375 12.0002C15.1525 12.0002 14.935 12.0662 14.75 12.1898C14.5649 12.3134 14.4208 12.4891 14.3356 12.6947C14.2505 12.9003 14.2282 13.1265 14.2716 13.3447C14.315 13.5629 14.4221 13.7634 14.5795 13.9207C14.7368 14.0781 14.9373 14.1852 15.1555 14.2286C15.3737 14.272 15.5999 14.2497 15.8055 14.1646C16.0111 14.0794 16.1868 13.9352 16.3104 13.7502C16.434 13.5652 16.5 13.3477 16.5 13.1252C16.5 12.8269 16.3814 12.5407 16.1705 12.3297C15.9595 12.1188 15.6733 12.0002 15.375 12.0002ZM22.3547 18.0846L16.0734 20.8699C15.8845 20.9539 15.6805 20.9983 15.4738 21.0005C15.2671 21.0028 15.0622 20.9627 14.8716 20.8828C14.6809 20.8029 14.5087 20.6848 14.3653 20.5359C14.222 20.387 14.1106 20.2103 14.0381 20.0168L13.2778 17.9543C12.8578 17.9824 12.4318 17.9968 12 17.9974C11.5681 17.998 11.1422 17.9837 10.7222 17.9543L9.96184 20.0168C9.88918 20.2102 9.77776 20.3868 9.63441 20.5357C9.49106 20.6845 9.3188 20.8025 9.12821 20.8824C8.93763 20.9623 8.73273 21.0024 8.52608 21.0002C8.31944 20.9981 8.11542 20.9537 7.92653 20.8699L1.64528 18.0846C1.32108 17.9429 1.05774 17.6906 0.902185 17.3728C0.74663 17.055 0.708967 16.6923 0.795907 16.3493L3.56247 5.43772C3.63548 5.15395 3.78966 4.89763 4.00613 4.70014C4.2226 4.50266 4.49195 4.37258 4.78122 4.32585L8.16184 3.76991C8.53452 3.70997 8.91618 3.79078 9.23258 3.99663C9.54898 4.20248 9.77751 4.51866 9.87372 4.88366L10.1793 6.08741C10.775 6.02929 11.3818 6.00022 12 6.00022C12.6181 6.00022 13.2243 6.02929 13.8187 6.08741L14.1243 4.88366C14.2204 4.51855 14.4489 4.20224 14.7653 3.99636C15.0818 3.79047 15.4635 3.70975 15.8362 3.76991L19.2187 4.32585C19.508 4.37258 19.7773 4.50266 19.9938 4.70014C20.2103 4.89763 20.3645 5.15395 20.4375 5.43772L23.2059 16.3483C23.293 16.6917 23.2552 17.0548 23.0992 17.3728C22.9433 17.6909 22.6794 17.9432 22.3547 18.0846ZM21.75 16.714L18.9815 5.81272C18.9815 5.81272 18.9815 5.81272 18.974 5.81272L15.5934 5.25022C15.591 5.24882 15.5882 5.24809 15.5854 5.24809C15.5826 5.24809 15.5799 5.24882 15.5775 5.25022L15.3122 6.2946C15.7809 6.38272 16.2497 6.48772 16.7025 6.61522C16.881 6.66073 17.0365 6.77035 17.1394 6.92318C17.2423 7.07602 17.2853 7.26137 17.2603 7.44389C17.2352 7.62641 17.1439 7.79333 17.0037 7.91283C16.8634 8.03232 16.6842 8.09602 16.5 8.09179C16.4315 8.09159 16.3634 8.08213 16.2975 8.06366C14.8968 7.68359 13.4513 7.49407 12 7.50022C10.5487 7.49376 9.10318 7.68296 7.70247 8.06272C7.60678 8.09231 7.50614 8.10242 7.40648 8.09248C7.30682 8.08253 7.21017 8.05273 7.12221 8.00483C7.03426 7.95692 6.95679 7.89188 6.89438 7.81355C6.83196 7.73522 6.78587 7.64519 6.75882 7.54875C6.73177 7.45232 6.72431 7.35145 6.73687 7.25209C6.74944 7.15272 6.78178 7.05689 6.83199 6.97022C6.88219 6.88356 6.94925 6.80783 7.02919 6.74751C7.10914 6.68718 7.20036 6.64348 7.29747 6.61897C7.74934 6.49147 8.21434 6.38647 8.68684 6.29835L8.42153 5.25022C8.42153 5.25022 8.42153 5.25022 8.41028 5.25022L5.02591 5.80616C5.02315 5.8054 5.02023 5.8054 5.01747 5.80616L2.24997 16.7187L8.53122 19.5002C8.53438 19.5019 8.53793 19.5029 8.54153 19.5028C8.54513 19.5029 8.54868 19.5019 8.55184 19.5002L9.18747 17.7865C8.55062 17.6891 7.92013 17.5538 7.29934 17.3815C7.11444 17.3224 6.95965 17.1939 6.86751 17.0231C6.77536 16.8522 6.75304 16.6523 6.80525 16.4654C6.85745 16.2784 6.98011 16.119 7.14743 16.0206C7.31475 15.9222 7.51371 15.8925 7.70247 15.9377C9.1031 16.3179 10.5487 16.5071 12 16.5002C13.4513 16.5071 14.8968 16.3179 16.2975 15.9377C16.489 15.884 16.6941 15.9086 16.8676 16.0061C17.041 16.1036 17.1686 16.266 17.2223 16.4576C17.276 16.6491 17.2514 16.8542 17.1539 17.0277C17.0564 17.2011 16.894 17.3287 16.7025 17.3824C16.0811 17.5545 15.4499 17.6894 14.8125 17.7865L15.4453 19.5002C15.4483 19.5019 15.4517 19.5027 15.4551 19.5027C15.4586 19.5027 15.4619 19.5019 15.465 19.5002L21.75 16.714Z" fill="#100F0F"/>
</svg>
